<?xml version="1.0" encoding="utf-8"?>
<!-- Generator: Adobe Illustrator 24.1.0, SVG Export Plug-In . SVG Version: 6.00 Build 0)  -->
<svg version="1.1" id="Capa_1" xmlns="http://www.w3.org/2000/svg" xmlns:xlink="http://www.w3.org/1999/xlink" x="0px" y="0px"
	 viewBox="0 0 228 203" style="enable-background:new 0 0 228 203;" xml:space="preserve">
<style type="text/css">
	.st0{fill:#EC1B24;}
	.st1{fill:#F9F9F9;}
</style>
<g>
	<path class="st0" d="M21.1,32.3c-1.2,15.4-3,81.1,41.9,140.1c23.9,31.4,72.1,29.7,93.7-3.3c5.4-8.3,10.6-17.7,15.2-28.5
		c0.5-1.1,2.2-0.8,2.2,0.4c0.1,2.5,0.2,5.4,0.1,7.9c0,1.2,1.4,1.7,2.1,0.7c6.9-9.5,25.2-38.7,17.8-73.3c-0.2-0.9,0.8-1.7,1.6-1.3
		c2.6,1.2,7.1,3.6,10.2,6.7c0.8,0.8,2.1,0.2,2-0.9c-0.4-5.7-2.9-18-16.4-30.7c-0.7-0.7-0.4-1.8,0.6-2c1.9-0.4,5-0.8,8.7-0.3
		c1.2,0.2,1.9-1.4,0.8-2.1c-7.8-5.4-25.2-14.7-46.5-9.5c-1.1,0.3-1.9-1-1.2-1.9c4.3-5.4,13.8-17.2,19.5-23.5
		c0.8-0.9-0.1-2.3-1.2-1.9c-12.8,4-50.5,16.6-63.4,31.4C97.9,53.2,89.8,58.5,86,60.6c-1,0.5-2.1-0.5-1.6-1.5c0.6-1.2,1.5-3,3-5.5
		c0.5-0.9-0.2-1.9-1.2-1.8c-7.8,1.3-32.2,6.9-44.5,27c-0.6,0.9,0.3,2.1,1.4,1.7c3-1,7.6-1.3,10.4,4.3c0.4,0.7,1.3,0.9,1.9,0.3
		c2.1-2.2,7.1-5.5,14.9,0.1c0.3,0.2,0.7,0.3,1,0.2c1.6-0.5,6.3-1.8,10.1,0.3c0.8,0.4,0.9,1.6,0.1,2.1c-2.3,1.3-7.2,3.4-14.6,2.3
		c-1.1-0.1-1.7,1.1-1,1.9c0.3,0.4,0.7,0.8,1.1,1.1c0.7,0.7,0.3,1.9-0.7,2c-3,0.2-7.9,0.1-12.3-2.2c-1.1-0.6-2.2,0.6-1.5,1.7
		c2.1,3.3,8,7.4,24.5,4.9c0.8-0.1,1.3-1.1,0.8-1.8l-0.6-0.9c-0.6-0.8,0-1.8,1-1.8l6.3,0.5c1,0.1,1.4,1.2,0.8,1.9
		c-3.3,3.8-11.7,12.3-20,10.7c-5.9-1.2-10.1-2.2-12.7-3c-1.1-0.3-1.9,0.9-1.3,1.8c4.5,6.4,17.5,21.2,38.3,13.2
		c0.8-0.3,1.6,0.3,1.6,1.2l0,0c-0.1,1,1,1.6,1.8,1.1l11.3-7.2c0.9-0.5,2,0.2,1.8,1.2l-0.8,4.8c-0.2,1,0.9,1.7,1.8,1.2l13.4-8
		c0.6-0.3,1.3-0.1,1.6,0.4c1.9,3.5,6.3,15.9-12.3,36.7c-0.7,0.8,0,2.1,1.1,1.9l2.2-0.4c1.2-0.2,1.9,1.3,1,2.1
		c-5.4,4.3-16.6,11.6-26.5,7.3c-13.5-5.9-46.8-54.5-55.5-96.4c-0.1-0.7,0.4-1.4,1.1-1.4l8.9-0.7c0.9-0.1,1.4-1.1,0.9-1.8L23.3,31.8
		C22.7,30.8,21.2,31.2,21.1,32.3z"/>
	<path class="st1" d="M101.8,58.7c0,0,8.9-6.1,14.3-10s20.4-1.8,20.4-1.8S122.2,57.7,101.8,58.7z"/>
</g>
</svg>
