<?xml version="1.0" encoding="utf-8"?>
<!-- Generator: Adobe Illustrator 24.1.0, SVG Export Plug-In . SVG Version: 6.00 Build 0)  -->
<svg version="1.1" id="Capa_1" xmlns="http://www.w3.org/2000/svg" xmlns:xlink="http://www.w3.org/1999/xlink" x="0px" y="0px"
	 viewBox="0 0 76.5 61.6" enable-background="new 0 0 76.5 61.6" xml:space="preserve">
<polygon points="37.8,2.3 1.9,16.6 1.9,59.5 12.5,59.5 12.5,23.8 37.8,23.8 63,23.8 63,59.5 73.6,59.5 73.6,16.6 "/>
<path d="M48.9,29.2H37H25.2l-5.5,14.1v16.2h7.1V54H37h10.3v5.5h7.1V43.3L48.9,29.2z M29,49.7c-1.3,0-2.4-1.1-2.4-2.4S27.7,45,29,45
	c1.3,0,2.4,1.1,2.4,2.4S30.3,49.7,29,49.7z M26.7,39.9l2-5.5H37h8.3l2,5.5H37H26.7z M45.5,49.7c-1.3,0-2.4-1.1-2.4-2.4
	s1.1-2.4,2.4-2.4s2.4,1.1,2.4,2.4S46.8,49.7,45.5,49.7z"/>
</svg>
