<?xml version="1.0" encoding="utf-8"?>
<!-- Generator: Adobe Illustrator 24.1.0, SVG Export Plug-In . SVG Version: 6.00 Build 0)  -->
<svg version="1.1" id="Capa_1" xmlns="http://www.w3.org/2000/svg" xmlns:xlink="http://www.w3.org/1999/xlink" x="0px" y="0px"
	 viewBox="0 0 658 203" enable-background="new 0 0 658 203" xml:space="preserve">
<g id="Logo_3">
	<g id="Nombre_2_">
		<polygon fill="#FFFFFF" points="252.9,83.7 260.8,90.9 260.8,127.5 252.9,127.5 260.8,135.9 260.8,185.3 274.4,171.7 274.4,137 
			281.6,137 289.5,127.5 274.8,127.5 274.8,93.2 288,93.2 296.5,84.7 		"/>
		<path fill="#FFFFFF" d="M298.2,185.3v-48.7l-4.9-4.2h4.9v-23.8c0,0-1.1-9.1,12.1-10.2c0,0,11,1.5,11,8.3h-9.8v24.9h7.6l2.3,4.9
			h-10.2v36.3L298.2,185.3z"/>
		<path fill="#FFFFFF" d="M361.3,185.3h-33.6c0,0-7.2-3-6.4-15.9c0.8-12.8,2.6-14,8.7-15.5h14.4l-1.9,4.9H335c0,0-2.5,0.8-2.1,10.8
			s3,9.8,3,9.8h5.3v-42.9c0,0,0-3.8-4.5-3c0,0-2.1,0-2.3,8.3l-13.2,11.7v-17c0,0,3-7.9,16.2-7.7c13.2,0.2,14.4,1.7,17.6,7v15.5
			l6.2,6.6h-7v21.3L361.3,185.3z"/>
		<path fill="#FFFFFF" d="M557.6,185.3H524c0,0-7.2-3-6.4-15.9c0.8-12.8,2.6-14,8.7-15.5h14.4l-1.9,4.9h-7.4c0,0-2.5,0.8-2.1,10.8
			s3,9.8,3,9.8h5.3v-42.9c0,0,0-3.8-4.5-3c0,0-2.1,0-2.3,8.3l-13.2,11.7v-17c0,0,3-7.9,16.2-7.7c13.2,0.2,14.4,1.7,17.6,7v15.5
			l6.2,6.6h-7v21.3L557.6,185.3z"/>
		<path fill="#FFFFFF" d="M358.8,128.9l6.2,6.6v49.9l12.2-11.2v-38.8c0,0,7.8-1.8,8.4,3.1c0.6,5,0,18.7,0,18.7l11.2-10.1v-12.8
			c0,0-1.6-5.6-7.5-5.4H358.8z"/>
		<path fill="#FFFFFF" d="M396.8,128.9l6.8,6.6v49.3l12.1-12.1v-38.7c0,0,7.2-1.1,8.1,3.5s0,46.6,0,46.6l11.2-11.2v-39.2
			c0,0,8.5-1,8.9,4.4s0,45.5,0,45.5l10.7-10.7v-36.5c0,0,0.6-6.6-8.1-7.4L396.8,128.9z"/>
		<polygon fill="#FFFFFF" points="478.8,83.1 489.5,93.8 495.2,93.8 495.2,184.7 508.6,171.3 508.6,93.5 513.9,93.5 524.4,83.1 		
			"/>
		<polygon fill="#FFFFFF" points="561,128.9 561,184.7 573.1,172.6 573.1,128.9 		"/>
		<rect x="561" y="120" fill="#FFFFFF" width="12.2" height="4.7"/>
		<path fill="#FFFFFF" d="M624.6,184.7h-36.8c0,0-3.6-1.8-4.3-11.9v-36.3c0,0,2.3-6.8,7.7-7.7h14v-17.9l11.1-11.1v29.1h5.9l-4,4
			l-1.5,1.5l0.2,45.3h-12.1v-45.8c0,0-9.1-0.5-9.1,4.4V174c0,0-1.2,3.8,2.4,4.1l18.2,0.1l7.3,6.5"/>
	</g>
	<g>
		<path fill="#EC1B24" d="M21.1,32.3c-1.2,15.4-3,81.1,41.9,140.1c23.9,31.4,72.1,29.7,93.7-3.3c5.4-8.3,10.6-17.7,15.2-28.5
			c0.5-1.1,2.2-0.8,2.2,0.4c0.1,2.5,0.2,5.4,0.1,7.9c0,1.2,1.4,1.7,2.1,0.7c6.9-9.5,25.2-38.7,17.8-73.3c-0.2-0.9,0.8-1.7,1.6-1.3
			c2.6,1.2,7.1,3.6,10.2,6.7c0.8,0.8,2.1,0.2,2-0.9c-0.4-5.7-2.9-18-16.4-30.7c-0.7-0.7-0.4-1.8,0.6-2c1.9-0.4,5-0.8,8.7-0.3
			c1.2,0.2,1.9-1.4,0.8-2.1c-7.8-5.4-25.2-14.7-46.5-9.5c-1.1,0.3-1.9-1-1.2-1.9c4.3-5.4,13.8-17.2,19.5-23.5
			c0.8-0.9-0.1-2.3-1.2-1.9c-12.8,4-50.5,16.6-63.4,31.4C97.9,53.2,89.8,58.5,86,60.6c-1,0.5-2.1-0.5-1.6-1.5c0.6-1.2,1.5-3,3-5.5
			c0.5-0.9-0.2-1.9-1.2-1.8c-7.8,1.3-32.2,6.9-44.5,27c-0.6,0.9,0.3,2.1,1.4,1.7c3-1,7.6-1.3,10.4,4.3c0.4,0.7,1.3,0.9,1.9,0.3
			c2.1-2.2,7.1-5.5,14.9,0.1c0.3,0.2,0.7,0.3,1,0.2c1.6-0.5,6.3-1.8,10.1,0.3c0.8,0.4,0.9,1.6,0.1,2.1c-2.3,1.3-7.2,3.4-14.6,2.3
			c-1.1-0.1-1.7,1.1-1,1.9c0.3,0.4,0.7,0.8,1.1,1.1c0.7,0.7,0.3,1.9-0.7,2c-3,0.2-7.9,0.1-12.3-2.2c-1.1-0.6-2.2,0.6-1.5,1.7
			c2.1,3.3,8,7.4,24.5,4.9c0.8-0.1,1.3-1.1,0.8-1.8l-0.6-0.9C76.6,96,77.2,95,78.2,95l6.3,0.5c1,0.1,1.4,1.2,0.8,1.9
			c-3.3,3.8-11.7,12.3-20,10.7c-5.9-1.2-10.1-2.2-12.7-3c-1.1-0.3-1.9,0.9-1.3,1.8c4.5,6.4,17.5,21.2,38.3,13.2
			c0.8-0.3,1.6,0.3,1.6,1.2v0c-0.1,1,1,1.6,1.8,1.1l11.3-7.2c0.9-0.5,2,0.2,1.8,1.2l-0.8,4.8c-0.2,1,0.9,1.7,1.8,1.2l13.4-8
			c0.6-0.3,1.3-0.1,1.6,0.4c1.9,3.5,6.3,15.9-12.3,36.7c-0.7,0.8,0,2.1,1.1,1.9l2.2-0.4c1.2-0.2,1.9,1.3,1,2.1
			c-5.4,4.3-16.6,11.6-26.5,7.3c-13.5-5.9-46.8-54.5-55.5-96.4c-0.1-0.7,0.4-1.4,1.1-1.4l8.9-0.7c0.9-0.1,1.4-1.1,0.9-1.8L23.3,31.8
			C22.7,30.8,21.2,31.2,21.1,32.3z"/>
		<path fill="#F9F9F9" d="M101.8,58.7c0,0,8.9-6.1,14.3-10c5.4-3.9,20.4-1.8,20.4-1.8S122.2,57.7,101.8,58.7z"/>
	</g>
</g>
</svg>
